<?xml version="1.0" encoding="UTF-8" standalone="no"?>
<!-- Created with Inkscape (http://www.inkscape.org/) -->

<svg xmlns:dc="http://purl.org/dc/elements/1.1/" xmlns:cc="http://creativecommons.org/ns#" xmlns:rdf="http://www.w3.org/1999/02/22-rdf-syntax-ns#" xmlns:svg="http://www.w3.org/2000/svg" xmlns="http://www.w3.org/2000/svg" version="1.2" width="947.25946" height="193.51701" id="svg2">
    <defs id="defs4">
        <filter x="-0.25" y="-0.25" width="1.5" height="1.5" color-interpolation-filters="sRGB" id="filter3366">
            <feGaussianBlur result="result1" stdDeviation="4" id="feGaussianBlur3368" />
            <feComposite in2="result1" operator="in" in="result1" result="result4" id="feComposite3370" />
            <feGaussianBlur in="result4" result="result6" stdDeviation="2" id="feGaussianBlur3372" />
            <feComposite in2="result4" operator="xor" in="result6" result="result8" id="feComposite3374" />
            <feComposite in2="result8" operator="atop" in="result4" result="fbSourceGraphic" id="feComposite3376" />
            <feSpecularLighting in="fbSourceGraphic" result="result1" lighting-color="#ffffff" surfaceScale="3" specularConstant="1.29999995" specularExponent="10" id="feSpecularLighting3378">
                <feDistantLight elevation="55" azimuth="235" id="feDistantLight3380" />
            </feSpecularLighting>
            <feComposite in2="fbSourceGraphic" operator="atop" in="result1" result="result2" id="feComposite3382" />
            <feComposite in2="result2" operator="arithmetic" k1="0" k2="1" k3="1" k4="0" in="fbSourceGraphic" result="result4" id="feComposite3384" />
            <feComposite in2="SourceGraphic" operator="over" in="result4" result="result9" id="feComposite3386" />
            <feBlend in2="result2" mode="multiply" id="feBlend3388" />
        </filter>
    </defs>
    <metadata id="metadata7">
        <rdf:RDF>
            <cc:Work rdf:about="">
                <dc:format>image/svg+xml</dc:format>
                <dc:type rdf:resource="http://purl.org/dc/dcmitype/StillImage" />
                <dc:title></dc:title>
            </cc:Work>
        </rdf:RDF>
    </metadata>
    <g transform="translate(119.20316,-84.276555)" id="layer1">
        <g transform="matrix(1.7837633,0,0,1.7837633,-275.2383,15.414934)" id="flowRoot2985" style="font-size:64px;font-style:normal;font-variant:normal;font-weight:500;font-stretch:normal;text-align:center;line-height:125%;letter-spacing:0px;word-spacing:0px;text-anchor:middle;fill:#000000;fill-opacity:1;stroke:none;filter:url(#filter3366);font-family:URW Chancery L;-inkscape-font-specification:URW Chancery L Medium Italic">
            <path d="m 219.1775,105.71271 c 15.42398,0 16.38401,-0.128 21.568,-3.008 l 0.128,-0.512 c -2.816,0.384 -6.912,0.64 -10.368,0.64 -0.512,0 -1.6,-0.064 -2.944,-0.128 4.928,-4.159992 6.528,-6.464001 7.616,-11.327996 l 4.992,-20.032 c 8.38399,0.703999 8.448,0.704 9.728,0.704 3.008,0 3.456,-0.576006 4.992,-6.912 l -0.832,-0.96 c -2.624,4.479996 -2.944,4.8 -5.248,4.8 -0.576,0 -2.048,-0.064 -4.032,-0.128 -9.40799,-0.447999 -10.56,-0.512 -12.608,-0.512 -11.19999,0 -19.52,6.080008 -19.52,14.272 0,2.047998 0.448,3.840002 1.6,6.08 l 4.8,-3.136 c -1.216,-3.135997 -1.472,-4.096002 -1.472,-5.888 0,-3.583996 1.664,-6.336001 4.8,-7.808 1.6,-0.767999 3.968,-1.088 7.36,-1.088 1.344,0 2.624,0.064 5.824,0.32 l -5.184,20.864 c -2.304,9.407986 -3.52001,11.007996 -8.96,11.263996 l -2.24,2.496" id="path2994" />
            <path d="m 272.4255,97.392714 c -4.8,3.199996 -5.76,3.775996 -6.4,3.775996 -0.448,0 -0.768,-0.512 -0.768,-1.279996 0,-1.663998 1.536,-8.704008 3.84,-17.216 0.704,-0.959999 0.832,-1.152001 1.856,-2.304 -3.072,-0.703999 -5.312,-0.96 -8.064,-0.96 -2.624,0 -3.84,0.256001 -5.504,1.28 -2.304,1.343999 -4.992,3.328001 -5.824,4.224 -2.368,2.687997 -5.056,11.328005 -5.056,16.511996 0,3.072 1.024,5.12 2.624,5.12 1.408,0 3.52001,-1.28 11.52,-7.039996 -0.64,2.943996 -0.96,4.927996 -0.96,5.695996 0,0.832 0.384,1.344 1.024,1.344 0.768,0 0.76801,0 5.888,-3.264 1.856,-1.21599 3.328,-2.24 5.76,-4.031996 l 0.064,-1.856 m -12.48,0.384 c -3.776,2.751996 -5.696,3.839996 -6.848,3.839996 -1.024,0 -1.664,-1.152 -1.664,-3.199996 0,-3.199997 1.024,-7.552003 2.624,-11.2 1.536,-3.519996 2.944,-4.864 5.12,-4.864 1.152,0 3.136,0.320001 5.44,0.832 -1.28,4.863995 -1.728,6.336 -1.792,6.656 -0.384,1.599999 -0.704,3.200002 -1.088,4.864 -0.064,0.32 -0.256,1.088001 -0.576,2.24 l -1.216,0.832" id="path2996" />
            <path d="m 290.7885,79.408714 c -2.56,0 -6.656,1.856003 -10.432,4.672 -4.096,3.071997 -6.976,9.728007 -6.976,16.063996 0,3.904 2.176,6.4 5.568,6.4 1.792,0 3.584,-0.64 6.528,-2.176 3.2,-1.79199 5.312,-3.392 6.464,-4.927996 2.56,-3.455996 4.608,-9.728004 4.608,-14.144 0,-3.455996 -2.368,-5.888 -5.76,-5.888 m -3.328,3.008 c 2.56,0 4.16,2.496004 4.16,6.336 0,2.687997 -0.896,6.016003 -2.496,9.152 -1.792,3.647996 -4.096,5.631996 -6.528,5.631996 -2.624,0 -4.288,-2.368 -4.288,-6.015996 0,-7.423992 4.672,-15.104 9.152,-15.104" id="path2998" />
            <path d="m 317.8025,105.71271 c 15.42398,0 16.38401,-0.128 21.568,-3.008 l 0.128,-0.512 c -2.816,0.384 -6.912,0.64 -10.368,0.64 -0.512,0 -1.6,-0.064 -2.944,-0.128 4.928,-4.159992 6.528,-6.464001 7.616,-11.327996 l 4.992,-20.032 c 8.38399,0.703999 8.448,0.704 9.728,0.704 3.008,0 3.456,-0.576006 4.992,-6.912 l -0.832,-0.96 c -2.624,4.479996 -2.944,4.8 -5.248,4.8 -0.576,0 -2.048,-0.064 -4.032,-0.128 -9.40799,-0.447999 -10.56,-0.512 -12.608,-0.512 -11.19999,0 -19.52,6.080008 -19.52,14.272 0,2.047998 0.448,3.840002 1.6,6.08 l 4.8,-3.136 c -1.216,-3.135997 -1.472,-4.096002 -1.472,-5.888 0,-3.583996 1.664,-6.336001 4.8,-7.808 1.6,-0.767999 3.968,-1.088 7.36,-1.088 1.344,0 2.624,0.064 5.824,0.32 l -5.184,20.864 c -2.304,9.407986 -3.52001,11.007996 -8.96,11.263996 l -2.24,2.496" id="path3000" />
            <path d="m 363.8825,96.944714 c -4.8,4.159996 -7.872,5.951996 -10.304,5.951996 -1.6,0 -2.944,-1.088 -3.392,-2.752 -0.256,-1.023995 -0.32,-1.727998 -0.32,-3.583996 2.88,-1.791998 4.8,-3.136003 8.576,-5.952 3.456,-2.623997 4.8,-4.736003 4.8,-7.616 0,-2.239998 -1.408,-3.584 -3.648,-3.584 -1.408,0 -2.432,0.320001 -3.904,1.152 -2.432,1.407999 -4.608,3.136002 -5.952,4.672 -2.432,2.943997 -4.608,9.984005 -4.608,15.167996 0,3.776 1.984,6.144 5.248,6.144 3.776,0 8.44801,-2.688 13.504,-7.743996 l 0,-1.856 m -13.824,-2.688 c 1.088,-6.847993 4.032,-12.16 6.784,-12.16 1.088,0 1.792,1.088002 1.792,2.624 0,3.199997 -1.72801,5.120005 -8.576,9.536" id="path3002" />
            <path d="m 429.1975,108.78471 c -2.496,3.52 -3.904,4.608 -6.08,4.608 -2.24,0 -4.48,-1.856 -6.336,-5.248 -1.856,-3.45599 -2.752,-5.632 -6.016,-14.783996 l -3.584,-9.792 c 10.04799,-8.511991 12.608,-10.176 15.424,-10.176 1.152,0 1.984,0.192001 3.776,0.96 l 2.368,-4.736 c -1.6,-0.639999 -2.432,-0.832 -3.584,-0.832 -2.048,0 -3.392,0.640003 -6.336,3.072 l -13.44,11.008 c -0.192,0.192 -0.96,0.768001 -2.048,1.6 l 3.328,-13.376 c 1.856,-0.511999 2.368,-0.832001 3.328,-1.984 -2.88,-0.192 -4.224,-0.256 -5.824,-0.256 -5.05599,0 -9.152,0.704002 -11.968,2.048 -4.8,2.367998 -7.424,6.144005 -7.424,10.752 0,1.663999 0.256,2.624002 1.088,4.8 l 5.248,-2.24 c -1.024,-2.495997 -1.408,-4.096002 -1.408,-6.08 0,-4.479995 3.20001,-6.912 9.152,-6.912 0.704,0 1.728,0.064 3.072,0.192 -0.384,1.663999 -1.088,4.288004 -1.92,7.872 -1.984,7.999992 -2.88,11.328003 -3.904,14.272 -2.496,7.103996 -4.864,9.407996 -9.792,9.407996 l -2.432,0 -2.816,2.752 8.768,0 c 5.63199,0 5.76,-0.064 10.112,-2.752 l -7.744,0 c 7.80799,-7.807988 8.832,-9.472004 10.88,-17.471996 0.128,0.448 0.32,0.896001 0.448,1.408 0.384,1.087999 0.384,1.152003 1.152,3.52 l 1.152,3.84 c 2.752,8.959996 4.672,13.376006 6.976,15.999996 2.816,3.2 6.72,4.864 11.456,4.864 2.112,0 3.264,-0.192 5.632,-1.088 l -0.704,-5.248" id="path3004" />
            <path d="m 433.1755,74.096714 c 1.856,-1.663998 1.984,-1.792001 4.16,-3.456 -0.384,-0.767999 -0.704,-1.28 -0.832,-1.472 -0.384,-0.767999 -0.448,-0.832001 -0.96,-2.048 -0.128,-0.256 -0.256,-0.512 -0.384,-0.832 -0.32,0.256 -0.704,0.512 -0.896,0.704 -0.256,0.256 -0.768,0.640001 -1.408,1.152 -0.32,0.256 -0.768,0.576001 -1.344,0.96 -0.256,0.192 -0.512,0.384 -0.768,0.512 0.448,1.407999 1.024,2.432002 2.432,4.48 m 4.416,24.192 c -6.07999,3.263996 -6.208,3.327996 -7.04,3.327996 -0.704,0 -1.152,-0.704 -1.152,-1.791996 0,-0.639999 0.192,-1.856001 0.576,-3.264 3.264,-13.439986 3.904,-16 3.904,-16.512 0,-0.383999 -0.32,-0.64 -0.768,-0.64 -1.088,0 -4.86401,2.112004 -10.112,5.632 l -0.128,1.792 c 3.776,-2.047998 4.096,-2.176 4.672,-2.176 0.512,0 0.768,0.384001 0.768,1.152 0,0.831999 -0.192,1.728004 -1.152,5.376 -3.008,11.199986 -3.008,11.200006 -3.008,12.799996 0,1.536 0.64,2.56 1.536,2.56 1.088,0 2.816,-0.832 6.208,-3.008 1.216,-0.768 2.432,-1.536 3.648,-2.368 0.576,-0.32 1.152,-0.704 1.792,-1.088 l 0.256,-1.791996" id="path3006" />
            <path d="m 443.5585,104.49671 3.776,-15.039996 c 7.99999,-5.055995 8.192,-5.12 9.088,-5.12 0.448,0 0.704,0.320001 0.704,0.832 0,0.959999 -0.512,3.392007 -2.368,10.688 -1.408,5.695996 -1.664,6.784006 -1.664,7.999996 0,0.896 0.256,1.72801 0.96,2.88 2.944,-1.34399 7.36,-4.096 11.84,-7.423996 l 0.448,-1.792 c -6.39999,3.647996 -6.656,3.775996 -7.296,3.775996 -0.64,0 -1.024,-0.704 -1.024,-1.727996 0,-1.343998 0.448,-3.456004 1.664,-7.872 3.008,-10.751989 3.008,-10.752 3.008,-11.2 0,-0.703999 -0.448,-1.088 -1.28,-1.088 -0.96,0 -2.368,0.576002 -4.672,2.048 l -8.768,5.44 c 0.576,-2.111998 1.536,-6.144 1.536,-6.656 0,-0.447999 -0.384,-0.832 -0.832,-0.832 -0.704,0 -5.312,2.368003 -10.048,5.184 l -0.384,1.664 c 4.096,-1.855998 4.352,-1.92 4.928,-1.92 0.448,0 0.768,0.384001 0.768,0.896 0,1.343999 -1.216,6.656006 -2.816,12.48 l -1.472,5.183996 c -0.128,0.448 -0.448,1.66401 -0.896,3.456 l 4.8,-1.856" id="path3008" />
            <path d="m 487.9705,91.696714 c 0.256,-1.407998 0.576,-2.624001 0.832,-3.648 l 0.96,-3.584 c 0.128,-0.575999 0.256,-1.024 0.32,-1.408 1.152,-0.32 1.216,-0.320003 3.264,-3.584 -5.24799,0.128 -6.72,0.128 -7.424,0.128 -3.904,0.064 -4.992,0.256001 -6.912,1.408 -3.072,1.919998 -5.248,3.712002 -6.592,5.44 -1.92,2.495998 -4.224,10.240004 -4.224,14.143996 0,1.6 0.384,2.75201 1.408,4.16 l -7.36,6.336 c -3.2,2.816 -4.672,4.92801 -4.672,6.72 0,2.368 2.816,3.712 7.68,3.712 5.88799,0 10.496,-1.664 14.784,-5.376 2.752,-2.36799 3.392,-3.712 4.736,-10.048 l 3.2,-14.399996 m -8.384,17.535996 c -0.832,3.84 -1.408,5.31201 -2.56,6.528 -1.408,1.6 -4.032,2.432 -7.808,2.432 -4.16,0 -6.4,-1.152 -6.4,-3.2 0,-2.62399 1.72802,-4.22401 19.52,-17.855996 l -2.752,12.095996 m 7.488,-26.239996 2.048,0 c -0.32,0.256 -0.704,0.576 -1.024,0.768 -2.048,1.471999 -2.496,2.048002 -3.072,3.584 -0.576,1.855998 -1.28,4.352003 -2.112,7.488 -1.28,0.831999 -2.81601,1.984004 -8.192,6.015996 -1.152,-1.151995 -1.6,-2.175997 -1.6,-3.711996 0,-2.175998 1.536,-7.744003 2.88,-10.816 1.28,-2.623997 2.624,-3.264 7.296,-3.264 0.448,0 1.216,0 2.048,-0.064 l 1.728,0" id="path3010" />
        </g>
    </g>
</svg>
